<?xml version="1.0" encoding="UTF-8"?>
<svg xmlns="http://www.w3.org/2000/svg" width="2500" height="662" viewBox="0 0 129.676 34.306">
  <path d="M115.985 5.351l-7.905 24.9h8.512l10.084-24.9h-10.691zM98.01 5.351l-7.965 24.9h7.905l10.085-24.9H98.01zM86.833 5.351h-9.423c-.304 0-.607.242-.669.546l-4.967 15.655a.347.347 0 0 0 .364.425h4.12c.305 0 .607-.242.668-.546l.972-3.071c.061-.304.364-.546.668-.546h3.391c3.208 0 6.477-1.76 7.207-6.113.85-4.536-2.175-6.35-6.331-6.35zm-.486 4.536c-.121.365-.303.668-.547.91-.79.85-1.882.85-2.975.85h-.729l.789-2.47h.85c.79 0 1.64 0 2.054.607.182.243.243.608.183 1.032C85.99 9.886 85.99 9.825 86.347 9.887zM54.335 24.173c-.06-.061-.12-.061-.12-.121 0-.061 0-.061.06-.122.79-1.7.364-3.583-1.032-4.859-1.033-.972-2.612-1.397-4.616-1.215l-3.451.243c-.243 0-.486.243-.547.486l-1.093 3.39c-.061.182.121.425.364.425h1.518c.121 0 .243-.06.243-.182l.121-.364c.06-.182.182-.304.425-.304h.486c1.153 0 2.063.243 2.367 1.336.304 1.032-.243 1.519-1.396 1.519H47.070c-.121 0-.243.121-.243.243l-.121.364c-.061.182.06.364.242.364h.243c.789 0 1.518.121 1.761.79.242.547-.122.85-.729.85-.79 0-1.396-.425-1.396-.425-.121-.06-.243 0-.304.121l-.972 1.58c-.61.182 0 .304.121.364 0 0 1.093.911 3.147.911 2.611 0 4.252-1.336 4.798-3.39.242-1.093 0-2.063-.607-2.67 0 0-.06-.06-.12-.061-1.154-1.033.486-.79.486-.79.424.06.789.425.91.85.182.607 0 1.578-.243 2.185-.61.121-.61.182 0 .243l1.215.607c.121.06.242 0 .303-.06 1.276-1.579 1.276-4.13.608-5.344zm0 0c-.06-.061-.12-.061-.12-.121 0-.061 0-.061.06-.122.79-1.7.364-3.583-1.032-4.859-1.033-.972-2.612-1.397-4.616-1.215l-3.451.243c-.243 0-.486.243-.547.486l-1.093 3.39c-.061.182.121.425.364.425h1.518c.121 0 .243-.06.243-.182l.121-.364c.06-.182.182-.304.425-.304h.486c1.153 0 2.063.243 2.367 1.336.304 1.032-.243 1.519-1.396 1.519H47.070c-.121 0-.243.121-.243.243l-.121.364c-.061.182.06.364.242.364h.243c.789 0 1.518.121 1.761.79.242.547-.122.85-.729.85-.79 0-1.396-.425-1.396-.425-.121-.06-.243 0-.304.121l-.972 1.58c-.61.182 0 .304.121.364 0 0 1.093.911 3.147.911 2.611 0 4.252-1.336 4.798-3.39.242-1.093 0-2.063-.607-2.67 0 0-.06-.06-.12-.061-1.154-1.033.486-.79.486-.79.424.06.789.425.91.85.182.607 0 1.578-.243 2.185-.61.121-.61.182 0 .243l1.215.607c.121.06.242 0 .303-.06 1.276-1.579 1.276-4.13.608-5.344zM73.85 5.351h-9.362c-.304 0-.607.243-.668.546l-4.967 15.716c-.61.182.121.364.364.364h4.798c.122 0 .243-.06.304-.182l.668-2.124c.06-.182.243-.303.364-.303h1.154c3.694 0 6.60-1.822 7.39-6.235.789-4.535-2.176-5.782-5.931-5.782h-7.449l-1.7 5.357h3.633c.79 0 1.336.303 1.214 1.093-.121.972-.789 1.275-1.578 1.275h-1.518l-1.883 5.933h8.754l7.905-15.655c.06-.121-.061-.304-.183-.304h-5.809z" fill="#009ee3"/>
  <path d="M0 24.112l5.445-17.841h5.383L8.007 14.64h3.461l2.821-8.369h5.383L14.227 24.05H8.844l1.593-4.963h-3.4L5.2 24.05H0v.062zm35.857-7.662c-1.1 3.491-3.269 8.181-10.828 8.181-6.429 0-8.068-4.17-6.853-8.181 1.215-4.073 4.06-8.245 10.951-8.245 7.095.001 7.828 4.798 6.73 8.245zm-3.33-3.27c-.243-1.032-1.032-1.7-2.186-1.7-3.633 0-4.1 5.049-3.693 6.478.242 1.032 1.032 1.7 2.186 1.7 3.573.001 4.041-5.109 3.693-6.478zm-16.089-1.335c0-1.76-1.275-3.704-4.919-3.704-4.008 0-6.924 2.732-7.752 5.587-.789 2.914.79 5.647 4.798 5.647 1.093 0 3.39-.304 5.019-1.882l-.061 1.578h4.736l2.914-9.23h-4.736l.001 1.518zm-4.554 3.704c-.364 1.214-1.396 1.942-2.489 1.942-.972 0-1.457-.728-1.215-1.76.242-.91 1.154-1.882 2.428-1.882.911 0 1.579.607 1.276 1.7z" fill="#242d60"/>
</svg>