<?xml version="1.0" encoding="UTF-8"?>
<svg xmlns="http://www.w3.org/2000/svg" width="124" height="33" viewBox="0 0 124 33" fill="none">
  <path d="M46.1731 8.16283H39.1235C38.7526 8.16283 38.433 8.43855 38.3793 8.80711L35.8939 24.5223C35.8541 24.781 36.0558 25.0142 36.3184 25.0142H39.7553C40.1262 25.0142 40.4458 24.7385 40.4994 24.37L41.1977 20.1421C41.2493 19.7736 41.5705 19.4979 41.9399 19.4979H44.15C48.2936 19.4979 50.7121 17.3756 51.4402 13.406C51.7687 11.6948 51.4886 10.3368 50.6743 9.41944C49.7735 8.40445 48.1942 8.16283 46.1731 8.16283ZM46.8891 13.5588C46.4903 15.8414 44.7773 15.8414 43.1134 15.8414H42.1651L42.8509 11.6745C42.8844 11.4596 43.0702 11.3014 43.2878 11.3014H43.7221C44.8512 11.3014 45.9206 11.3014 46.4934 11.9328C46.8382 12.31 46.9772 12.8565 46.8891 13.5588Z" fill="white"/>
  <path d="M74.2963 13.4732H70.842C70.6244 13.4732 70.4385 13.6313 70.405 13.8463L70.2816 14.6367L70.0888 14.3623C69.4488 13.4494 68.0887 13.1841 66.7318 13.1841C63.67 13.1841 61.0605 15.4956 60.467 18.6097C60.1582 20.1611 60.506 21.6282 61.4078 22.6431C62.2453 23.5808 63.4561 23.9734 64.8868 23.9734C67.3694 23.9734 68.7048 22.4079 68.7048 22.4079L68.5799 23.1767C68.5402 23.4354 68.7418 23.6686 69.0044 23.6686H72.1308C72.5019 23.6686 72.8213 23.393 72.8749 23.0244L74.7223 14.0149C74.762 13.7547 74.5589 13.4732 74.2963 13.4732ZM69.6347 18.6719C69.3222 20.1815 68.1239 21.1793 66.5876 21.1793C65.8172 21.1793 65.2016 20.9462 64.8108 20.4904C64.4245 20.0392 64.312 19.3865 64.4642 18.6287C64.7575 17.1328 65.975 16.1133 67.4888 16.1133C68.2425 16.1133 68.8551 16.3494 69.2499 16.8082C69.6469 17.2718 69.7731 17.9215 69.6347 18.6719Z" fill="white"/>
  <path d="M98.0958 13.4732H94.6278C94.3802 13.4732 94.1494 13.5983 94.0091 13.8124L90.2805 19.4053L88.7129 14.0425C88.6074 13.7024 88.2969 13.4732 87.9441 13.4732H84.5239C84.2334 13.4732 84.0287 13.7795 84.121 14.0564L87.0877 22.8921L84.3138 26.8472C84.1099 27.138 84.3138 27.5474 84.6714 27.5474H88.1358C88.38 27.5474 88.6092 27.4254 88.7511 27.2159L98.4581 14.1688C98.6589 13.881 98.4534 13.4732 98.0958 13.4732Z" fill="white"/>
  <path d="M111.183 8.16283H104.134C103.763 8.16283 103.443 8.43855 103.389 8.80711L100.904 24.5223C100.864 24.781 101.066 25.0142 101.328 25.0142H104.802C105.066 25.0142 105.294 24.8561 105.328 24.6397L106.055 20.1421C106.107 19.7736 106.428 19.4979 106.797 19.4979H109.008C113.151 19.4979 115.57 17.3756 116.298 13.406C116.626 11.6948 116.346 10.3368 115.532 9.41944C114.63 8.40445 113.051 8.16283 111.183 8.16283ZM111.898 13.5588C111.5 15.8414 109.787 15.8414 108.123 15.8414H107.173L107.859 11.6745C107.893 11.4596 108.079 11.3014 108.296 11.3014H108.731C109.859 11.3014 110.929 11.3014 111.502 11.9328C111.846 12.31 111.986 12.8565 111.898 13.5588Z" fill="white"/>
  <path d="M123.2 8.43469L120.675 24.5223C120.634 24.781 120.837 25.0142 121.099 25.0142H124.286C124.657 25.0142 124.977 24.7385 125.031 24.37L127.516 8.65493C127.556 8.39622 127.354 8.16283 127.092 8.16283H123.625C123.408 8.16283 123.222 8.32098 123.2 8.43469Z" fill="white"/>
  <path d="M8.55284 32.4444L9.15204 28.5259L7.77499 28.4984H1.13464L5.25694 1.15277C5.26731 1.10043 5.29305 1.05276 5.32767 1.01974C5.36229 0.986712 5.40841 0.968811 5.4572 0.968811H15.5133C18.8469 0.968811 21.0182 1.87283 22.0047 3.66194C22.4602 4.49932 22.7167 5.39868 22.7732 6.38539C22.833 7.40851 22.6942 8.52858 22.3629 9.76569L22.3438 9.84522V10.6777L22.9794 11.0673C23.5166 11.3816 23.9513 11.7496 24.2819 12.1795C24.8107 12.8577 25.1609 13.7109 25.3219 14.7227C25.4889 15.7618 25.4661 16.9717 25.2558 18.3208C25.0106 19.9078 24.5926 21.3153 24.0132 22.5061C23.4874 23.5805 22.8128 24.4923 22.0061 25.2156C21.2362 25.9077 20.3368 26.4488 19.3302 26.8221C18.3588 27.1867 17.2784 27.4355 16.1242 27.5599C15.1077 27.6704 14.0069 27.7254 12.8553 27.7254H12.2374C11.6307 27.7254 11.0478 27.9268 10.5733 28.2972C10.0988 28.6791 9.76507 29.2036 9.61987 29.7954L9.5348 30.1977L8.56322 32.3924L8.55284 32.4444Z" fill="#0070BA"/>
  <path d="M24.1022 9.90152C24.0656 10.1266 24.0253 10.3578 23.9813 10.5951C22.6386 17.1976 18.3069 19.636 12.8293 19.636H10.0131C9.2712 19.636 8.65127 20.1897 8.55828 20.9247L7.0835 30.3494L6.72394 32.4444C6.65784 32.8402 6.95649 33.1996 7.35936 33.1996H12.2374C12.8823 33.1996 13.4293 32.7122 13.5109 32.0746L13.5817 31.7418L14.5465 25.5551L14.6327 25.1343C14.7129 24.4939 15.2613 24.0065 15.9047 24.0065H16.7003C21.5227 24.0065 25.2797 21.8903 26.451 16.1857C26.9492 13.7552 26.7312 11.7131 25.5414 10.2775C25.1309 9.78404 24.6415 9.371 24.1022 9.90152Z" fill="#003087"/>
  <path d="M22.8203 9.31604C22.6564 9.27419 22.4886 9.23601 22.3168 9.20012C22.145 9.16589 21.9691 9.13367 21.7892 9.10278C21.1344 9.00378 20.4264 8.95727 19.6781 8.95727H11.7932C11.6309 8.95727 11.4779 8.99214 11.3394 9.05393C11.0425 9.18986 10.8135 9.46355 10.7604 9.80006L9.08883 20.2738L9.05493 20.4924C9.14793 19.7574 9.76784 19.2037 10.5098 19.2037H13.326C18.805 19.2037 23.1353 16.764 24.4766 10.1628C24.522 9.92549 24.5609 9.69427 24.5965 9.46853C24.3507 9.41668 24.0925 9.37152 23.8234 9.33162C23.4916 9.31739 23.1583 9.31604 22.8203 9.31604Z" fill="#002D74"/>
  <path d="M10.7618 9.79974C10.8149 9.46322 11.0439 9.18953 11.3409 9.05494C11.4808 8.99316 11.6337 8.95829 11.7946 8.95829H19.6795C20.4278 8.95829 21.1358 9.0048 21.7906 9.1038C21.9705 9.13335 22.1464 9.16691 22.3183 9.20114C22.4901 9.23704 22.6578 9.2752 22.8217 9.31707C23.1597 9.31707 23.493 9.31707 23.8248 9.33265C24.0939 9.3739 24.3521 9.41906 24.5979 9.46955C24.8196 7.83585 24.5937 6.70339 23.8717 5.82274C23.0557 4.82825 21.5154 4.37012 19.4726 4.37012H10.541C9.7991 4.37012 9.17917 4.92384 9.08617 5.65883L5.35132 29.8956C5.27485 30.3498 5.62829 30.766 6.0882 30.766H10.2669L11.7903 20.4911L10.7618 9.79974Z" fill="#001C64"/>
</svg>